<?xml version="1.0" encoding="UTF-8" ?>
<svg version="1.1" width="104" height="41" xmlns="http://www.w3.org/2000/svg" shape-rendering="crispEdges">
<rect x="96" y="0" width="4" height="1" fill="#000000" />
<rect x="90" y="1" width="6" height="1" fill="#000000" />
<rect x="96" y="1" width="4" height="15" fill="#F6F5B4" />
<rect x="100" y="1" width="1" height="2" fill="#000000" />
<rect x="84" y="2" width="6" height="1" fill="#000000" />
<rect x="90" y="2" width="6" height="14" fill="#F6F5B4" />
<rect x="78" y="3" width="6" height="1" fill="#000000" />
<rect x="84" y="3" width="6" height="13" fill="#F6F5B4" />
<rect x="100" y="3" width="1" height="13" fill="#F6F5B4" />
<rect x="101" y="3" width="1" height="2" fill="#000000" />
<rect x="72" y="4" width="6" height="1" fill="#000000" />
<rect x="78" y="4" width="6" height="12" fill="#F6F5B4" />
<rect x="65" y="5" width="7" height="1" fill="#000000" />
<rect x="72" y="5" width="6" height="11" fill="#F6F5B4" />
<rect x="101" y="5" width="1" height="9" fill="#F6F5B4" />
<rect x="102" y="5" width="1" height="2" fill="#000000" />
<rect x="59" y="6" width="6" height="1" fill="#000000" />
<rect x="65" y="6" width="7" height="10" fill="#F6F5B4" />
<rect x="53" y="7" width="6" height="1" fill="#000000" />
<rect x="59" y="7" width="6" height="9" fill="#F6F5B4" />
<rect x="102" y="7" width="1" height="3" fill="#F6F5B4" />
<rect x="103" y="7" width="1" height="3" fill="#000000" />
<rect x="47" y="8" width="6" height="1" fill="#000000" />
<rect x="53" y="8" width="6" height="8" fill="#F6F5B4" />
<rect x="41" y="9" width="6" height="1" fill="#000000" />
<rect x="47" y="9" width="6" height="7" fill="#F6F5B4" />
<rect x="35" y="10" width="6" height="1" fill="#000000" />
<rect x="41" y="10" width="6" height="6" fill="#F6F5B4" />
<rect x="102" y="10" width="1" height="4" fill="#000000" />
<rect x="28" y="11" width="7" height="1" fill="#000000" />
<rect x="35" y="11" width="6" height="5" fill="#F6F5B4" />
<rect x="22" y="12" width="6" height="1" fill="#000000" />
<rect x="28" y="12" width="7" height="4" fill="#F6F5B4" />
<rect x="16" y="13" width="6" height="1" fill="#000000" />
<rect x="22" y="13" width="6" height="3" fill="#F6F5B4" />
<rect x="10" y="14" width="6" height="1" fill="#000000" />
<rect x="16" y="14" width="6" height="2" fill="#F6F5B4" />
<rect x="101" y="14" width="1" height="5" fill="#000000" />
<rect x="4" y="15" width="6" height="1" fill="#000000" />
<rect x="10" y="15" width="6" height="1" fill="#F6F5B4" />
<rect x="0" y="16" width="4" height="1" fill="#000000" />
<rect x="4" y="16" width="97" height="1" fill="#F6F5A9" />
<rect x="3" y="17" width="7" height="1" fill="#000000" />
<rect x="10" y="17" width="91" height="1" fill="#F6F5B4" />
<rect x="7" y="18" width="9" height="1" fill="#000000" />
<rect x="16" y="18" width="85" height="1" fill="#F6F5B4" />
<rect x="11" y="19" width="4" height="1" fill="#000000" />
<rect x="15" y="19" width="1" height="1" fill="#F6F5A9" />
<rect x="16" y="19" width="6" height="1" fill="#000000" />
<rect x="22" y="19" width="80" height="1" fill="#F6F5B4" />
<rect x="102" y="19" width="1" height="4" fill="#000000" />
<rect x="15" y="20" width="4" height="1" fill="#000000" />
<rect x="19" y="20" width="3" height="1" fill="#F6F5A9" />
<rect x="22" y="20" width="6" height="1" fill="#000000" />
<rect x="28" y="20" width="74" height="1" fill="#F6F5B4" />
<rect x="19" y="21" width="4" height="1" fill="#000000" />
<rect x="23" y="21" width="5" height="1" fill="#F6F5A9" />
<rect x="28" y="21" width="7" height="1" fill="#000000" />
<rect x="35" y="21" width="67" height="1" fill="#F6F5B4" />
<rect x="23" y="22" width="4" height="1" fill="#000000" />
<rect x="27" y="22" width="8" height="1" fill="#F6F5A9" />
<rect x="35" y="22" width="6" height="1" fill="#000000" />
<rect x="41" y="22" width="61" height="1" fill="#F6F5B4" />
<rect x="27" y="23" width="4" height="1" fill="#000000" />
<rect x="31" y="23" width="10" height="1" fill="#F6F5A9" />
<rect x="41" y="23" width="6" height="1" fill="#000000" />
<rect x="47" y="23" width="56" height="1" fill="#F6F5B4" />
<rect x="103" y="23" width="1" height="3" fill="#000000" />
<rect x="31" y="24" width="4" height="1" fill="#000000" />
<rect x="35" y="24" width="12" height="1" fill="#F6F5A9" />
<rect x="47" y="24" width="6" height="1" fill="#000000" />
<rect x="53" y="24" width="50" height="1" fill="#F6F5B4" />
<rect x="35" y="25" width="4" height="1" fill="#000000" />
<rect x="39" y="25" width="14" height="1" fill="#F6F5A9" />
<rect x="53" y="25" width="6" height="1" fill="#000000" />
<rect x="59" y="25" width="44" height="1" fill="#F6F5B4" />
<rect x="39" y="26" width="4" height="1" fill="#000000" />
<rect x="43" y="26" width="16" height="1" fill="#F6F5A9" />
<rect x="59" y="26" width="6" height="1" fill="#000000" />
<rect x="65" y="26" width="37" height="1" fill="#F6F5B4" />
<rect x="102" y="26" width="1" height="2" fill="#000000" />
<rect x="43" y="27" width="4" height="1" fill="#000000" />
<rect x="47" y="27" width="18" height="1" fill="#F6F5A9" />
<rect x="65" y="27" width="7" height="1" fill="#000000" />
<rect x="72" y="27" width="30" height="1" fill="#F6F5B4" />
<rect x="47" y="28" width="4" height="1" fill="#000000" />
<rect x="51" y="28" width="21" height="1" fill="#F6F5A9" />
<rect x="72" y="28" width="6" height="1" fill="#000000" />
<rect x="78" y="28" width="23" height="1" fill="#F6F5B4" />
<rect x="101" y="28" width="1" height="13" fill="#000000" />
<rect x="51" y="29" width="5" height="1" fill="#000000" />
<rect x="56" y="29" width="22" height="1" fill="#F6F5A9" />
<rect x="78" y="29" width="6" height="1" fill="#000000" />
<rect x="84" y="29" width="17" height="1" fill="#F6F5B4" />
<rect x="56" y="30" width="4" height="1" fill="#000000" />
<rect x="60" y="30" width="24" height="1" fill="#F6F5A9" />
<rect x="84" y="30" width="6" height="1" fill="#000000" />
<rect x="90" y="30" width="10" height="1" fill="#F6F5B4" />
<rect x="100" y="30" width="1" height="2" fill="#000000" />
<rect x="60" y="31" width="4" height="1" fill="#000000" />
<rect x="64" y="31" width="26" height="1" fill="#F6F5A9" />
<rect x="90" y="31" width="6" height="1" fill="#000000" />
<rect x="96" y="31" width="4" height="1" fill="#F6F5B4" />
<rect x="64" y="32" width="4" height="1" fill="#000000" />
<rect x="68" y="32" width="28" height="1" fill="#F6F5A9" />
<rect x="96" y="32" width="4" height="1" fill="#000000" />
<rect x="100" y="32" width="1" height="8" fill="#F6F5A9" />
<rect x="68" y="33" width="4" height="1" fill="#000000" />
<rect x="72" y="33" width="28" height="1" fill="#F6F5A9" />
<rect x="72" y="34" width="4" height="1" fill="#000000" />
<rect x="76" y="34" width="24" height="1" fill="#F6F5A9" />
<rect x="76" y="35" width="4" height="1" fill="#000000" />
<rect x="80" y="35" width="20" height="1" fill="#F6F5A9" />
<rect x="80" y="36" width="4" height="1" fill="#000000" />
<rect x="84" y="36" width="16" height="1" fill="#F6F5A9" />
<rect x="84" y="37" width="4" height="1" fill="#000000" />
<rect x="88" y="37" width="12" height="1" fill="#F6F5A9" />
<rect x="88" y="38" width="4" height="1" fill="#000000" />
<rect x="92" y="38" width="8" height="1" fill="#F6F5A9" />
<rect x="92" y="39" width="4" height="1" fill="#000000" />
<rect x="96" y="39" width="4" height="1" fill="#F6F5A9" />
<rect x="96" y="40" width="5" height="1" fill="#000000" />
</svg>