<?xml version="1.0" encoding="UTF-8" ?>
<svg version="1.1" width="64" height="64" xmlns="http://www.w3.org/2000/svg" shape-rendering="crispEdges">
<rect x="3" y="1" width="58" height="4" fill="#4B0101" />
<rect x="2" y="2" width="1" height="60" fill="#4B0101" />
<rect x="61" y="2" width="1" height="60" fill="#4B0101" />
<rect x="1" y="3" width="1" height="58" fill="#4B0101" />
<rect x="62" y="3" width="1" height="58" fill="#4B0101" />
<rect x="3" y="5" width="3" height="1" fill="#4B0101" />
<rect x="6" y="5" width="52" height="1" fill="#AC3232" />
<rect x="58" y="5" width="3" height="1" fill="#4B0101" />
<rect x="3" y="6" width="2" height="57" fill="#4B0101" />
<rect x="5" y="6" width="2" height="1" fill="#AC3232" />
<rect x="7" y="6" width="3" height="5" fill="#FFFFFF" />
<rect x="10" y="6" width="44" height="1" fill="#AC3232" />
<rect x="54" y="6" width="3" height="5" fill="#FFFFFF" />
<rect x="57" y="6" width="2" height="1" fill="#AC3232" />
<rect x="59" y="6" width="2" height="57" fill="#4B0101" />
<rect x="5" y="7" width="1" height="51" fill="#AC3232" />
<rect x="6" y="7" width="1" height="3" fill="#FFFFFF" />
<rect x="10" y="7" width="1" height="7" fill="#FFFFFF" />
<rect x="11" y="7" width="42" height="1" fill="#AC3232" />
<rect x="53" y="7" width="1" height="7" fill="#FFFFFF" />
<rect x="57" y="7" width="1" height="3" fill="#FFFFFF" />
<rect x="58" y="7" width="1" height="51" fill="#AC3232" />
<rect x="11" y="8" width="1" height="7" fill="#FFFFFF" />
<rect x="12" y="8" width="40" height="1" fill="#AC3232" />
<rect x="52" y="8" width="1" height="7" fill="#FFFFFF" />
<rect x="12" y="9" width="1" height="7" fill="#FFFFFF" />
<rect x="13" y="9" width="38" height="1" fill="#AC3232" />
<rect x="51" y="9" width="1" height="7" fill="#FFFFFF" />
<rect x="6" y="10" width="1" height="44" fill="#AC3232" />
<rect x="13" y="10" width="1" height="7" fill="#FFFFFF" />
<rect x="14" y="10" width="36" height="1" fill="#AC3232" />
<rect x="50" y="10" width="1" height="7" fill="#FFFFFF" />
<rect x="57" y="10" width="1" height="44" fill="#AC3232" />
<rect x="7" y="11" width="1" height="42" fill="#AC3232" />
<rect x="8" y="11" width="2" height="1" fill="#FFFFFF" />
<rect x="14" y="11" width="1" height="7" fill="#FFFFFF" />
<rect x="15" y="11" width="34" height="1" fill="#AC3232" />
<rect x="49" y="11" width="1" height="7" fill="#FFFFFF" />
<rect x="54" y="11" width="2" height="1" fill="#FFFFFF" />
<rect x="56" y="11" width="1" height="42" fill="#AC3232" />
<rect x="8" y="12" width="1" height="40" fill="#AC3232" />
<rect x="9" y="12" width="1" height="1" fill="#FFFFFF" />
<rect x="15" y="12" width="1" height="7" fill="#FFFFFF" />
<rect x="16" y="12" width="32" height="1" fill="#AC3232" />
<rect x="48" y="12" width="1" height="7" fill="#FFFFFF" />
<rect x="54" y="12" width="1" height="1" fill="#FFFFFF" />
<rect x="55" y="12" width="1" height="40" fill="#AC3232" />
<rect x="9" y="13" width="1" height="38" fill="#AC3232" />
<rect x="16" y="13" width="1" height="7" fill="#FFFFFF" />
<rect x="17" y="13" width="30" height="1" fill="#AC3232" />
<rect x="47" y="13" width="1" height="7" fill="#FFFFFF" />
<rect x="54" y="13" width="1" height="38" fill="#AC3232" />
<rect x="10" y="14" width="1" height="36" fill="#AC3232" />
<rect x="17" y="14" width="1" height="7" fill="#FFFFFF" />
<rect x="18" y="14" width="28" height="1" fill="#AC3232" />
<rect x="46" y="14" width="1" height="7" fill="#FFFFFF" />
<rect x="53" y="14" width="1" height="36" fill="#AC3232" />
<rect x="11" y="15" width="1" height="34" fill="#AC3232" />
<rect x="18" y="15" width="1" height="7" fill="#FFFFFF" />
<rect x="19" y="15" width="26" height="1" fill="#AC3232" />
<rect x="45" y="15" width="1" height="7" fill="#FFFFFF" />
<rect x="52" y="15" width="1" height="34" fill="#AC3232" />
<rect x="12" y="16" width="1" height="32" fill="#AC3232" />
<rect x="19" y="16" width="1" height="7" fill="#FFFFFF" />
<rect x="20" y="16" width="24" height="1" fill="#AC3232" />
<rect x="44" y="16" width="1" height="7" fill="#FFFFFF" />
<rect x="51" y="16" width="1" height="32" fill="#AC3232" />
<rect x="13" y="17" width="1" height="30" fill="#AC3232" />
<rect x="20" y="17" width="1" height="7" fill="#FFFFFF" />
<rect x="21" y="17" width="22" height="1" fill="#AC3232" />
<rect x="43" y="17" width="1" height="7" fill="#FFFFFF" />
<rect x="50" y="17" width="1" height="30" fill="#AC3232" />
<rect x="14" y="18" width="1" height="28" fill="#AC3232" />
<rect x="21" y="18" width="1" height="7" fill="#FFFFFF" />
<rect x="22" y="18" width="20" height="1" fill="#AC3232" />
<rect x="42" y="18" width="1" height="7" fill="#FFFFFF" />
<rect x="49" y="18" width="1" height="28" fill="#AC3232" />
<rect x="15" y="19" width="1" height="26" fill="#AC3232" />
<rect x="22" y="19" width="1" height="7" fill="#FFFFFF" />
<rect x="23" y="19" width="18" height="1" fill="#AC3232" />
<rect x="41" y="19" width="1" height="7" fill="#FFFFFF" />
<rect x="48" y="19" width="1" height="26" fill="#AC3232" />
<rect x="16" y="20" width="1" height="24" fill="#AC3232" />
<rect x="23" y="20" width="1" height="7" fill="#FFFFFF" />
<rect x="24" y="20" width="16" height="1" fill="#AC3232" />
<rect x="40" y="20" width="1" height="7" fill="#FFFFFF" />
<rect x="47" y="20" width="1" height="24" fill="#AC3232" />
<rect x="17" y="21" width="1" height="22" fill="#AC3232" />
<rect x="24" y="21" width="1" height="7" fill="#FFFFFF" />
<rect x="25" y="21" width="14" height="1" fill="#AC3232" />
<rect x="39" y="21" width="1" height="7" fill="#FFFFFF" />
<rect x="46" y="21" width="1" height="22" fill="#AC3232" />
<rect x="18" y="22" width="1" height="20" fill="#AC3232" />
<rect x="25" y="22" width="1" height="7" fill="#FFFFFF" />
<rect x="26" y="22" width="12" height="1" fill="#AC3232" />
<rect x="38" y="22" width="1" height="7" fill="#FFFFFF" />
<rect x="45" y="22" width="1" height="20" fill="#AC3232" />
<rect x="19" y="23" width="1" height="18" fill="#AC3232" />
<rect x="26" y="23" width="1" height="7" fill="#FFFFFF" />
<rect x="27" y="23" width="10" height="1" fill="#AC3232" />
<rect x="37" y="23" width="1" height="7" fill="#FFFFFF" />
<rect x="44" y="23" width="1" height="18" fill="#AC3232" />
<rect x="20" y="24" width="1" height="16" fill="#AC3232" />
<rect x="27" y="24" width="1" height="7" fill="#FFFFFF" />
<rect x="28" y="24" width="8" height="1" fill="#AC3232" />
<rect x="36" y="24" width="1" height="7" fill="#FFFFFF" />
<rect x="43" y="24" width="1" height="16" fill="#AC3232" />
<rect x="21" y="25" width="1" height="14" fill="#AC3232" />
<rect x="28" y="25" width="1" height="14" fill="#FFFFFF" />
<rect x="29" y="25" width="6" height="1" fill="#AC3232" />
<rect x="35" y="25" width="1" height="14" fill="#FFFFFF" />
<rect x="42" y="25" width="1" height="14" fill="#AC3232" />
<rect x="22" y="26" width="1" height="12" fill="#AC3232" />
<rect x="29" y="26" width="1" height="12" fill="#FFFFFF" />
<rect x="30" y="26" width="4" height="1" fill="#AC3232" />
<rect x="34" y="26" width="1" height="12" fill="#FFFFFF" />
<rect x="41" y="26" width="1" height="12" fill="#AC3232" />
<rect x="23" y="27" width="1" height="10" fill="#AC3232" />
<rect x="30" y="27" width="1" height="10" fill="#FFFFFF" />
<rect x="31" y="27" width="2" height="1" fill="#AC3232" />
<rect x="33" y="27" width="1" height="10" fill="#FFFFFF" />
<rect x="40" y="27" width="1" height="10" fill="#AC3232" />
<rect x="24" y="28" width="1" height="8" fill="#AC3232" />
<rect x="31" y="28" width="2" height="8" fill="#FFFFFF" />
<rect x="39" y="28" width="1" height="8" fill="#AC3232" />
<rect x="25" y="29" width="1" height="6" fill="#AC3232" />
<rect x="38" y="29" width="1" height="6" fill="#AC3232" />
<rect x="26" y="30" width="1" height="4" fill="#AC3232" />
<rect x="37" y="30" width="1" height="4" fill="#AC3232" />
<rect x="27" y="31" width="1" height="2" fill="#AC3232" />
<rect x="36" y="31" width="1" height="2" fill="#AC3232" />
<rect x="27" y="33" width="1" height="7" fill="#FFFFFF" />
<rect x="36" y="33" width="1" height="7" fill="#FFFFFF" />
<rect x="26" y="34" width="1" height="7" fill="#FFFFFF" />
<rect x="37" y="34" width="1" height="7" fill="#FFFFFF" />
<rect x="25" y="35" width="1" height="7" fill="#FFFFFF" />
<rect x="38" y="35" width="1" height="7" fill="#FFFFFF" />
<rect x="24" y="36" width="1" height="7" fill="#FFFFFF" />
<rect x="31" y="36" width="2" height="23" fill="#AC3232" />
<rect x="39" y="36" width="1" height="7" fill="#FFFFFF" />
<rect x="23" y="37" width="1" height="7" fill="#FFFFFF" />
<rect x="30" y="37" width="1" height="22" fill="#AC3232" />
<rect x="33" y="37" width="1" height="22" fill="#AC3232" />
<rect x="40" y="37" width="1" height="7" fill="#FFFFFF" />
<rect x="22" y="38" width="1" height="7" fill="#FFFFFF" />
<rect x="29" y="38" width="1" height="21" fill="#AC3232" />
<rect x="34" y="38" width="1" height="21" fill="#AC3232" />
<rect x="41" y="38" width="1" height="7" fill="#FFFFFF" />
<rect x="21" y="39" width="1" height="7" fill="#FFFFFF" />
<rect x="28" y="39" width="1" height="20" fill="#AC3232" />
<rect x="35" y="39" width="1" height="20" fill="#AC3232" />
<rect x="42" y="39" width="1" height="7" fill="#FFFFFF" />
<rect x="20" y="40" width="1" height="7" fill="#FFFFFF" />
<rect x="27" y="40" width="1" height="19" fill="#AC3232" />
<rect x="36" y="40" width="1" height="19" fill="#AC3232" />
<rect x="43" y="40" width="1" height="7" fill="#FFFFFF" />
<rect x="19" y="41" width="1" height="7" fill="#FFFFFF" />
<rect x="26" y="41" width="1" height="18" fill="#AC3232" />
<rect x="37" y="41" width="1" height="18" fill="#AC3232" />
<rect x="44" y="41" width="1" height="7" fill="#FFFFFF" />
<rect x="18" y="42" width="1" height="7" fill="#FFFFFF" />
<rect x="25" y="42" width="1" height="17" fill="#AC3232" />
<rect x="38" y="42" width="1" height="17" fill="#AC3232" />
<rect x="45" y="42" width="1" height="7" fill="#FFFFFF" />
<rect x="17" y="43" width="1" height="7" fill="#FFFFFF" />
<rect x="24" y="43" width="1" height="16" fill="#AC3232" />
<rect x="39" y="43" width="1" height="16" fill="#AC3232" />
<rect x="46" y="43" width="1" height="7" fill="#FFFFFF" />
<rect x="16" y="44" width="1" height="7" fill="#FFFFFF" />
<rect x="23" y="44" width="1" height="15" fill="#AC3232" />
<rect x="40" y="44" width="1" height="15" fill="#AC3232" />
<rect x="47" y="44" width="1" height="7" fill="#FFFFFF" />
<rect x="15" y="45" width="1" height="7" fill="#FFFFFF" />
<rect x="22" y="45" width="1" height="14" fill="#AC3232" />
<rect x="41" y="45" width="1" height="14" fill="#AC3232" />
<rect x="48" y="45" width="1" height="7" fill="#FFFFFF" />
<rect x="14" y="46" width="1" height="7" fill="#FFFFFF" />
<rect x="21" y="46" width="1" height="13" fill="#AC3232" />
<rect x="42" y="46" width="1" height="13" fill="#AC3232" />
<rect x="49" y="46" width="1" height="7" fill="#FFFFFF" />
<rect x="13" y="47" width="1" height="7" fill="#FFFFFF" />
<rect x="20" y="47" width="1" height="12" fill="#AC3232" />
<rect x="43" y="47" width="1" height="12" fill="#AC3232" />
<rect x="50" y="47" width="1" height="7" fill="#FFFFFF" />
<rect x="12" y="48" width="1" height="7" fill="#FFFFFF" />
<rect x="19" y="48" width="1" height="11" fill="#AC3232" />
<rect x="44" y="48" width="1" height="11" fill="#AC3232" />
<rect x="51" y="48" width="1" height="7" fill="#FFFFFF" />
<rect x="11" y="49" width="1" height="7" fill="#FFFFFF" />
<rect x="18" y="49" width="1" height="10" fill="#AC3232" />
<rect x="45" y="49" width="1" height="10" fill="#AC3232" />
<rect x="52" y="49" width="1" height="7" fill="#FFFFFF" />
<rect x="10" y="50" width="1" height="7" fill="#FFFFFF" />
<rect x="17" y="50" width="1" height="9" fill="#AC3232" />
<rect x="46" y="50" width="1" height="9" fill="#AC3232" />
<rect x="53" y="50" width="1" height="7" fill="#FFFFFF" />
<rect x="9" y="51" width="1" height="7" fill="#FFFFFF" />
<rect x="16" y="51" width="1" height="8" fill="#AC3232" />
<rect x="47" y="51" width="1" height="8" fill="#AC3232" />
<rect x="54" y="51" width="1" height="7" fill="#FFFFFF" />
<rect x="8" y="52" width="1" height="6" fill="#FFFFFF" />
<rect x="15" y="52" width="1" height="7" fill="#AC3232" />
<rect x="48" y="52" width="1" height="7" fill="#AC3232" />
<rect x="55" y="52" width="1" height="6" fill="#FFFFFF" />
<rect x="7" y="53" width="1" height="5" fill="#FFFFFF" />
<rect x="14" y="53" width="1" height="6" fill="#AC3232" />
<rect x="49" y="53" width="1" height="6" fill="#AC3232" />
<rect x="56" y="53" width="1" height="5" fill="#FFFFFF" />
<rect x="6" y="54" width="1" height="3" fill="#FFFFFF" />
<rect x="13" y="54" width="1" height="5" fill="#AC3232" />
<rect x="50" y="54" width="1" height="5" fill="#AC3232" />
<rect x="57" y="54" width="1" height="3" fill="#FFFFFF" />
<rect x="12" y="55" width="1" height="4" fill="#AC3232" />
<rect x="51" y="55" width="1" height="4" fill="#AC3232" />
<rect x="11" y="56" width="1" height="3" fill="#AC3232" />
<rect x="52" y="56" width="1" height="3" fill="#AC3232" />
<rect x="6" y="57" width="1" height="2" fill="#AC3232" />
<rect x="10" y="57" width="1" height="2" fill="#AC3232" />
<rect x="53" y="57" width="1" height="2" fill="#AC3232" />
<rect x="57" y="57" width="1" height="2" fill="#AC3232" />
<rect x="5" y="58" width="1" height="5" fill="#4B0101" />
<rect x="7" y="58" width="3" height="1" fill="#AC3232" />
<rect x="54" y="58" width="3" height="1" fill="#AC3232" />
<rect x="58" y="58" width="1" height="5" fill="#4B0101" />
<rect x="6" y="59" width="52" height="4" fill="#4B0101" />
</svg>