<?xml version="1.0" encoding="UTF-8" ?>
<svg version="1.1" width="64" height="48" xmlns="http://www.w3.org/2000/svg" shape-rendering="crispEdges">
<rect x="1" y="0" width="62" height="1" fill="#000000" />
<rect x="0" y="1" width="2" height="1" fill="#000000" />
<rect x="2" y="1" width="60" height="1" fill="#F6F5B4" />
<rect x="62" y="1" width="2" height="1" fill="#000000" />
<rect x="0" y="2" width="1" height="45" fill="#000000" />
<rect x="1" y="2" width="1" height="44" fill="#F6F5B4" />
<rect x="2" y="2" width="1" height="2" fill="#000000" />
<rect x="3" y="2" width="58" height="2" fill="#F6F5B4" />
<rect x="61" y="2" width="1" height="2" fill="#000000" />
<rect x="62" y="2" width="1" height="44" fill="#F6F5B4" />
<rect x="63" y="2" width="1" height="45" fill="#000000" />
<rect x="2" y="4" width="1" height="40" fill="#F6F5B4" />
<rect x="3" y="4" width="1" height="1" fill="#000000" />
<rect x="4" y="4" width="56" height="1" fill="#F6F5B4" />
<rect x="60" y="4" width="1" height="1" fill="#000000" />
<rect x="61" y="4" width="1" height="40" fill="#F6F5B4" />
<rect x="3" y="5" width="1" height="38" fill="#F6F5B4" />
<rect x="4" y="5" width="1" height="1" fill="#000000" />
<rect x="5" y="5" width="54" height="1" fill="#F6F5B4" />
<rect x="59" y="5" width="1" height="1" fill="#000000" />
<rect x="60" y="5" width="1" height="38" fill="#F6F5B4" />
<rect x="4" y="6" width="1" height="36" fill="#F6F5B4" />
<rect x="5" y="6" width="1" height="2" fill="#000000" />
<rect x="6" y="6" width="52" height="2" fill="#F6F5B4" />
<rect x="58" y="6" width="1" height="2" fill="#000000" />
<rect x="59" y="6" width="1" height="36" fill="#F6F5B4" />
<rect x="5" y="8" width="1" height="32" fill="#F6F5B4" />
<rect x="6" y="8" width="1" height="1" fill="#000000" />
<rect x="7" y="8" width="50" height="1" fill="#F6F5B4" />
<rect x="57" y="8" width="1" height="1" fill="#000000" />
<rect x="58" y="8" width="1" height="32" fill="#F6F5B4" />
<rect x="6" y="9" width="1" height="30" fill="#F6F5B4" />
<rect x="7" y="9" width="1" height="1" fill="#000000" />
<rect x="8" y="9" width="48" height="1" fill="#F6F5B4" />
<rect x="56" y="9" width="1" height="1" fill="#000000" />
<rect x="57" y="9" width="1" height="30" fill="#F6F5B4" />
<rect x="7" y="10" width="1" height="28" fill="#F6F5B4" />
<rect x="8" y="10" width="1" height="2" fill="#000000" />
<rect x="9" y="10" width="46" height="2" fill="#F6F5B4" />
<rect x="55" y="10" width="1" height="2" fill="#000000" />
<rect x="56" y="10" width="1" height="28" fill="#F6F5B4" />
<rect x="8" y="12" width="1" height="24" fill="#F6F5B4" />
<rect x="9" y="12" width="1" height="1" fill="#000000" />
<rect x="10" y="12" width="44" height="1" fill="#F6F5B4" />
<rect x="54" y="12" width="1" height="1" fill="#000000" />
<rect x="55" y="12" width="1" height="24" fill="#F6F5B4" />
<rect x="9" y="13" width="1" height="22" fill="#F6F5B4" />
<rect x="10" y="13" width="1" height="1" fill="#000000" />
<rect x="11" y="13" width="42" height="1" fill="#F6F5B4" />
<rect x="53" y="13" width="1" height="1" fill="#000000" />
<rect x="54" y="13" width="1" height="22" fill="#F6F5B4" />
<rect x="10" y="14" width="1" height="20" fill="#F6F5B4" />
<rect x="11" y="14" width="1" height="1" fill="#000000" />
<rect x="12" y="14" width="40" height="1" fill="#F6F5B4" />
<rect x="52" y="14" width="1" height="1" fill="#000000" />
<rect x="53" y="14" width="1" height="20" fill="#F6F5B4" />
<rect x="11" y="15" width="1" height="18" fill="#F6F5B4" />
<rect x="12" y="15" width="1" height="2" fill="#000000" />
<rect x="13" y="15" width="38" height="2" fill="#F6F5B4" />
<rect x="51" y="15" width="1" height="2" fill="#000000" />
<rect x="52" y="15" width="1" height="18" fill="#F6F5B4" />
<rect x="12" y="17" width="1" height="14" fill="#F6F5B4" />
<rect x="13" y="17" width="1" height="1" fill="#000000" />
<rect x="14" y="17" width="36" height="1" fill="#F6F5B4" />
<rect x="50" y="17" width="1" height="1" fill="#000000" />
<rect x="51" y="17" width="1" height="14" fill="#F6F5B4" />
<rect x="13" y="18" width="1" height="12" fill="#F6F5B4" />
<rect x="14" y="18" width="1" height="1" fill="#000000" />
<rect x="15" y="18" width="34" height="1" fill="#F6F5B4" />
<rect x="49" y="18" width="1" height="1" fill="#000000" />
<rect x="50" y="18" width="1" height="12" fill="#F6F5B4" />
<rect x="14" y="19" width="1" height="10" fill="#F6F5B4" />
<rect x="15" y="19" width="1" height="1" fill="#000000" />
<rect x="16" y="19" width="32" height="1" fill="#F6F5B4" />
<rect x="48" y="19" width="1" height="1" fill="#000000" />
<rect x="49" y="19" width="1" height="10" fill="#F6F5B4" />
<rect x="15" y="20" width="1" height="8" fill="#F6F5B4" />
<rect x="16" y="20" width="1" height="1" fill="#000000" />
<rect x="17" y="20" width="30" height="1" fill="#F6F5B4" />
<rect x="47" y="20" width="1" height="1" fill="#000000" />
<rect x="48" y="20" width="1" height="8" fill="#F6F5B4" />
<rect x="16" y="21" width="1" height="6" fill="#F6F5B4" />
<rect x="17" y="21" width="1" height="1" fill="#000000" />
<rect x="18" y="21" width="13" height="1" fill="#F6F5B4" />
<rect x="31" y="21" width="4" height="2" fill="#AB0000" />
<rect x="35" y="21" width="11" height="1" fill="#F6F5B4" />
<rect x="46" y="21" width="1" height="1" fill="#000000" />
<rect x="47" y="21" width="1" height="6" fill="#F6F5B4" />
<rect x="17" y="22" width="1" height="4" fill="#F6F5B4" />
<rect x="18" y="22" width="1" height="1" fill="#000000" />
<rect x="19" y="22" width="9" height="1" fill="#F6F5B4" />
<rect x="28" y="22" width="3" height="1" fill="#AB0000" />
<rect x="35" y="22" width="2" height="1" fill="#AB0000" />
<rect x="37" y="22" width="8" height="1" fill="#F6F5B4" />
<rect x="45" y="22" width="1" height="1" fill="#000000" />
<rect x="46" y="22" width="1" height="4" fill="#F6F5B4" />
<rect x="18" y="23" width="1" height="2" fill="#F6F5B4" />
<rect x="19" y="23" width="1" height="2" fill="#000000" />
<rect x="20" y="23" width="7" height="1" fill="#F6F5B4" />
<rect x="27" y="23" width="3" height="1" fill="#AB0000" />
<rect x="30" y="23" width="6" height="1" fill="#A30000" />
<rect x="36" y="23" width="2" height="1" fill="#AB0000" />
<rect x="38" y="23" width="6" height="1" fill="#F6F5B4" />
<rect x="44" y="23" width="1" height="2" fill="#000000" />
<rect x="45" y="23" width="1" height="2" fill="#F6F5B4" />
<rect x="20" y="24" width="1" height="1" fill="#000000" />
<rect x="21" y="24" width="5" height="1" fill="#F6F5B4" />
<rect x="26" y="24" width="2" height="1" fill="#AB0000" />
<rect x="28" y="24" width="2" height="10" fill="#A30000" />
<rect x="30" y="24" width="6" height="1" fill="#7B0000" />
<rect x="36" y="24" width="1" height="1" fill="#A30000" />
<rect x="37" y="24" width="2" height="1" fill="#AB0000" />
<rect x="39" y="24" width="4" height="1" fill="#F6F5B4" />
<rect x="43" y="24" width="1" height="1" fill="#000000" />
<rect x="18" y="25" width="1" height="1" fill="#000000" />
<rect x="19" y="25" width="2" height="22" fill="#F6F5B4" />
<rect x="21" y="25" width="1" height="1" fill="#000000" />
<rect x="22" y="25" width="3" height="1" fill="#F6F5B4" />
<rect x="25" y="25" width="2" height="1" fill="#AB0000" />
<rect x="27" y="25" width="1" height="10" fill="#A30000" />
<rect x="30" y="25" width="1" height="10" fill="#A30000" />
<rect x="31" y="25" width="2" height="1" fill="#7B0000" />
<rect x="33" y="25" width="3" height="4" fill="#A30000" />
<rect x="36" y="25" width="2" height="2" fill="#7B0000" />
<rect x="38" y="25" width="2" height="1" fill="#AB0000" />
<rect x="40" y="25" width="2" height="1" fill="#F6F5B4" />
<rect x="42" y="25" width="1" height="1" fill="#000000" />
<rect x="43" y="25" width="2" height="22" fill="#F6F5B4" />
<rect x="45" y="25" width="1" height="1" fill="#000000" />
<rect x="17" y="26" width="1" height="1" fill="#000000" />
<rect x="18" y="26" width="1" height="21" fill="#F6F5B4" />
<rect x="21" y="26" width="1" height="21" fill="#F6F5B4" />
<rect x="22" y="26" width="1" height="1" fill="#000000" />
<rect x="23" y="26" width="2" height="1" fill="#F6F5B4" />
<rect x="25" y="26" width="1" height="3" fill="#AB0000" />
<rect x="26" y="26" width="1" height="8" fill="#A30000" />
<rect x="31" y="26" width="1" height="10" fill="#7B0000" />
<rect x="32" y="26" width="1" height="3" fill="#A30000" />
<rect x="38" y="26" width="1" height="9" fill="#A30000" />
<rect x="39" y="26" width="2" height="1" fill="#AB0000" />
<rect x="41" y="26" width="1" height="1" fill="#000000" />
<rect x="42" y="26" width="1" height="21" fill="#F6F5B4" />
<rect x="45" y="26" width="1" height="21" fill="#F6F5B4" />
<rect x="46" y="26" width="1" height="1" fill="#000000" />
<rect x="16" y="27" width="1" height="1" fill="#000000" />
<rect x="17" y="27" width="1" height="20" fill="#F6F5B4" />
<rect x="22" y="27" width="1" height="20" fill="#F6F5B4" />
<rect x="23" y="27" width="1" height="1" fill="#000000" />
<rect x="24" y="27" width="1" height="7" fill="#AB0000" />
<rect x="36" y="27" width="1" height="1" fill="#A30000" />
<rect x="37" y="27" width="1" height="2" fill="#7B0000" />
<rect x="39" y="27" width="1" height="6" fill="#A30000" />
<rect x="40" y="27" width="1" height="8" fill="#AB0000" />
<rect x="41" y="27" width="1" height="1" fill="#F6F5B4" />
<rect x="46" y="27" width="1" height="20" fill="#F6F5B4" />
<rect x="47" y="27" width="1" height="1" fill="#000000" />
<rect x="15" y="28" width="1" height="1" fill="#000000" />
<rect x="16" y="28" width="1" height="19" fill="#F6F5B4" />
<rect x="23" y="28" width="1" height="19" fill="#F6F5B4" />
<rect x="36" y="28" width="1" height="2" fill="#7B0000" />
<rect x="41" y="28" width="1" height="4" fill="#AB0000" />
<rect x="47" y="28" width="1" height="19" fill="#F6F5B4" />
<rect x="48" y="28" width="1" height="1" fill="#000000" />
<rect x="14" y="29" width="1" height="1" fill="#000000" />
<rect x="15" y="29" width="1" height="18" fill="#F6F5B4" />
<rect x="25" y="29" width="1" height="3" fill="#A30000" />
<rect x="32" y="29" width="1" height="2" fill="#7B0000" />
<rect x="33" y="29" width="1" height="1" fill="#A30000" />
<rect x="34" y="29" width="2" height="2" fill="#7B0000" />
<rect x="37" y="29" width="1" height="7" fill="#A30000" />
<rect x="48" y="29" width="1" height="18" fill="#F6F5B4" />
<rect x="49" y="29" width="1" height="1" fill="#000000" />
<rect x="13" y="30" width="1" height="1" fill="#000000" />
<rect x="14" y="30" width="1" height="17" fill="#F6F5B4" />
<rect x="33" y="30" width="1" height="1" fill="#7B0000" />
<rect x="36" y="30" width="1" height="7" fill="#A30000" />
<rect x="49" y="30" width="1" height="17" fill="#F6F5B4" />
<rect x="50" y="30" width="1" height="1" fill="#000000" />
<rect x="12" y="31" width="1" height="2" fill="#000000" />
<rect x="13" y="31" width="1" height="16" fill="#F6F5B4" />
<rect x="32" y="31" width="4" height="6" fill="#A30000" />
<rect x="50" y="31" width="1" height="16" fill="#F6F5B4" />
<rect x="51" y="31" width="1" height="2" fill="#000000" />
<rect x="25" y="32" width="1" height="3" fill="#AB0000" />
<rect x="41" y="32" width="1" height="15" fill="#F6F5B4" />
<rect x="11" y="33" width="1" height="1" fill="#000000" />
<rect x="12" y="33" width="1" height="14" fill="#F6F5B4" />
<rect x="39" y="33" width="1" height="3" fill="#AB0000" />
<rect x="51" y="33" width="1" height="14" fill="#F6F5B4" />
<rect x="52" y="33" width="1" height="1" fill="#000000" />
<rect x="10" y="34" width="1" height="1" fill="#000000" />
<rect x="11" y="34" width="1" height="13" fill="#F6F5B4" />
<rect x="24" y="34" width="1" height="13" fill="#F6F5B4" />
<rect x="26" y="34" width="1" height="2" fill="#AB0000" />
<rect x="28" y="34" width="1" height="2" fill="#7B0000" />
<rect x="29" y="34" width="1" height="1" fill="#A30000" />
<rect x="52" y="34" width="1" height="13" fill="#F6F5B4" />
<rect x="53" y="34" width="1" height="1" fill="#000000" />
<rect x="9" y="35" width="1" height="1" fill="#000000" />
<rect x="10" y="35" width="1" height="12" fill="#F6F5B4" />
<rect x="25" y="35" width="1" height="12" fill="#F6F5B4" />
<rect x="27" y="35" width="1" height="2" fill="#AB0000" />
<rect x="29" y="35" width="2" height="1" fill="#7B0000" />
<rect x="38" y="35" width="1" height="2" fill="#AB0000" />
<rect x="40" y="35" width="1" height="12" fill="#F6F5B4" />
<rect x="53" y="35" width="1" height="12" fill="#F6F5B4" />
<rect x="54" y="35" width="1" height="1" fill="#000000" />
<rect x="8" y="36" width="1" height="2" fill="#000000" />
<rect x="9" y="36" width="1" height="11" fill="#F6F5B4" />
<rect x="26" y="36" width="1" height="11" fill="#F6F5B4" />
<rect x="28" y="36" width="1" height="2" fill="#AB0000" />
<rect x="29" y="36" width="3" height="1" fill="#A30000" />
<rect x="37" y="36" width="1" height="2" fill="#AB0000" />
<rect x="39" y="36" width="1" height="11" fill="#F6F5B4" />
<rect x="54" y="36" width="1" height="11" fill="#F6F5B4" />
<rect x="55" y="36" width="1" height="2" fill="#000000" />
<rect x="27" y="37" width="1" height="10" fill="#F6F5B4" />
<rect x="29" y="37" width="2" height="2" fill="#AB0000" />
<rect x="31" y="37" width="3" height="1" fill="#A30000" />
<rect x="34" y="37" width="3" height="1" fill="#AB0000" />
<rect x="38" y="37" width="1" height="10" fill="#F6F5B4" />
<rect x="7" y="38" width="1" height="1" fill="#000000" />
<rect x="8" y="38" width="1" height="9" fill="#F6F5B4" />
<rect x="28" y="38" width="1" height="9" fill="#F6F5B4" />
<rect x="31" y="38" width="5" height="1" fill="#AB0000" />
<rect x="36" y="38" width="2" height="9" fill="#F6F5B4" />
<rect x="55" y="38" width="1" height="9" fill="#F6F5B4" />
<rect x="56" y="38" width="1" height="1" fill="#000000" />
<rect x="6" y="39" width="1" height="1" fill="#000000" />
<rect x="7" y="39" width="1" height="8" fill="#F6F5B4" />
<rect x="29" y="39" width="7" height="8" fill="#F6F5B4" />
<rect x="56" y="39" width="1" height="8" fill="#F6F5B4" />
<rect x="57" y="39" width="1" height="1" fill="#000000" />
<rect x="5" y="40" width="1" height="2" fill="#000000" />
<rect x="6" y="40" width="1" height="7" fill="#F6F5B4" />
<rect x="57" y="40" width="1" height="7" fill="#F6F5B4" />
<rect x="58" y="40" width="1" height="2" fill="#000000" />
<rect x="4" y="42" width="1" height="1" fill="#000000" />
<rect x="5" y="42" width="1" height="5" fill="#F6F5B4" />
<rect x="58" y="42" width="1" height="5" fill="#F6F5B4" />
<rect x="59" y="42" width="1" height="1" fill="#000000" />
<rect x="3" y="43" width="1" height="1" fill="#000000" />
<rect x="4" y="43" width="1" height="4" fill="#F6F5B4" />
<rect x="59" y="43" width="1" height="4" fill="#F6F5B4" />
<rect x="60" y="43" width="1" height="1" fill="#000000" />
<rect x="2" y="44" width="1" height="2" fill="#000000" />
<rect x="3" y="44" width="1" height="3" fill="#F6F5B4" />
<rect x="60" y="44" width="1" height="3" fill="#F6F5B4" />
<rect x="61" y="44" width="1" height="2" fill="#000000" />
<rect x="1" y="46" width="1" height="2" fill="#000000" />
<rect x="2" y="46" width="1" height="1" fill="#F6F5B4" />
<rect x="61" y="46" width="1" height="1" fill="#F6F5B4" />
<rect x="62" y="46" width="1" height="2" fill="#000000" />
<rect x="2" y="47" width="60" height="1" fill="#000000" />
</svg>