<?xml version="1.0" encoding="UTF-8" ?>
<svg version="1.1" width="128" height="96" xmlns="http://www.w3.org/2000/svg" shape-rendering="crispEdges">
<rect x="3" y="1" width="122" height="1" fill="#000000" />
<rect x="2" y="2" width="1" height="1" fill="#000000" />
<rect x="3" y="2" width="122" height="1" fill="#F6F5B4" />
<rect x="125" y="2" width="1" height="1" fill="#000000" />
<rect x="1" y="3" width="1" height="90" fill="#000000" />
<rect x="2" y="3" width="1" height="90" fill="#F6F5B4" />
<rect x="3" y="3" width="1" height="2" fill="#000000" />
<rect x="4" y="3" width="120" height="2" fill="#F6F5B4" />
<rect x="124" y="3" width="1" height="2" fill="#000000" />
<rect x="125" y="3" width="1" height="90" fill="#F6F5B4" />
<rect x="126" y="3" width="1" height="90" fill="#000000" />
<rect x="3" y="5" width="1" height="86" fill="#F6F5B4" />
<rect x="4" y="5" width="1" height="1" fill="#000000" />
<rect x="5" y="5" width="118" height="1" fill="#F6F5B4" />
<rect x="123" y="5" width="1" height="1" fill="#000000" />
<rect x="124" y="5" width="1" height="86" fill="#F6F5B4" />
<rect x="4" y="6" width="1" height="84" fill="#F6F5B4" />
<rect x="5" y="6" width="1" height="1" fill="#000000" />
<rect x="6" y="6" width="116" height="1" fill="#F6F5B4" />
<rect x="122" y="6" width="1" height="1" fill="#000000" />
<rect x="123" y="6" width="1" height="84" fill="#F6F5B4" />
<rect x="5" y="7" width="1" height="82" fill="#F6F5B4" />
<rect x="6" y="7" width="1" height="1" fill="#000000" />
<rect x="7" y="7" width="114" height="1" fill="#F6F5B4" />
<rect x="121" y="7" width="1" height="2" fill="#000000" />
<rect x="122" y="7" width="1" height="82" fill="#F6F5B4" />
<rect x="6" y="8" width="1" height="79" fill="#F6F5B4" />
<rect x="7" y="8" width="1" height="2" fill="#000000" />
<rect x="8" y="8" width="113" height="1" fill="#F6F5B4" />
<rect x="8" y="9" width="112" height="1" fill="#F6F5B4" />
<rect x="120" y="9" width="1" height="1" fill="#000000" />
<rect x="121" y="9" width="1" height="79" fill="#F6F5B4" />
<rect x="7" y="10" width="1" height="76" fill="#F6F5B4" />
<rect x="8" y="10" width="1" height="1" fill="#000000" />
<rect x="9" y="10" width="110" height="1" fill="#F6F5B4" />
<rect x="119" y="10" width="1" height="1" fill="#000000" />
<rect x="120" y="10" width="1" height="76" fill="#F6F5B4" />
<rect x="8" y="11" width="1" height="74" fill="#F6F5B4" />
<rect x="9" y="11" width="1" height="1" fill="#000000" />
<rect x="10" y="11" width="108" height="1" fill="#F6F5B4" />
<rect x="118" y="11" width="1" height="1" fill="#000000" />
<rect x="119" y="11" width="1" height="74" fill="#F6F5B4" />
<rect x="9" y="12" width="1" height="72" fill="#F6F5B4" />
<rect x="10" y="12" width="1" height="2" fill="#000000" />
<rect x="11" y="12" width="106" height="2" fill="#F6F5B4" />
<rect x="117" y="12" width="1" height="2" fill="#000000" />
<rect x="118" y="12" width="1" height="72" fill="#F6F5B4" />
<rect x="10" y="14" width="1" height="68" fill="#F6F5B4" />
<rect x="11" y="14" width="1" height="1" fill="#000000" />
<rect x="12" y="14" width="104" height="1" fill="#F6F5B4" />
<rect x="116" y="14" width="1" height="1" fill="#000000" />
<rect x="117" y="14" width="1" height="68" fill="#F6F5B4" />
<rect x="11" y="15" width="1" height="66" fill="#F6F5B4" />
<rect x="12" y="15" width="1" height="1" fill="#000000" />
<rect x="13" y="15" width="102" height="1" fill="#F6F5B4" />
<rect x="115" y="15" width="1" height="1" fill="#000000" />
<rect x="116" y="15" width="1" height="66" fill="#F6F5B4" />
<rect x="12" y="16" width="1" height="64" fill="#F6F5B4" />
<rect x="13" y="16" width="1" height="1" fill="#000000" />
<rect x="14" y="16" width="100" height="1" fill="#F6F5B4" />
<rect x="114" y="16" width="1" height="1" fill="#000000" />
<rect x="115" y="16" width="1" height="64" fill="#F6F5B4" />
<rect x="13" y="17" width="1" height="62" fill="#F6F5B4" />
<rect x="14" y="17" width="1" height="2" fill="#000000" />
<rect x="15" y="17" width="98" height="2" fill="#F6F5B4" />
<rect x="113" y="17" width="1" height="2" fill="#000000" />
<rect x="114" y="17" width="1" height="62" fill="#F6F5B4" />
<rect x="14" y="19" width="1" height="58" fill="#F6F5B4" />
<rect x="15" y="19" width="1" height="1" fill="#000000" />
<rect x="16" y="19" width="96" height="1" fill="#F6F5B4" />
<rect x="112" y="19" width="1" height="1" fill="#000000" />
<rect x="113" y="19" width="1" height="58" fill="#F6F5B4" />
<rect x="15" y="20" width="1" height="56" fill="#F6F5B4" />
<rect x="16" y="20" width="1" height="1" fill="#000000" />
<rect x="17" y="20" width="94" height="1" fill="#F6F5B4" />
<rect x="111" y="20" width="1" height="1" fill="#000000" />
<rect x="112" y="20" width="1" height="56" fill="#F6F5B4" />
<rect x="16" y="21" width="1" height="54" fill="#F6F5B4" />
<rect x="17" y="21" width="1" height="2" fill="#000000" />
<rect x="18" y="21" width="92" height="2" fill="#F6F5B4" />
<rect x="110" y="21" width="1" height="2" fill="#000000" />
<rect x="111" y="21" width="1" height="54" fill="#F6F5B4" />
<rect x="17" y="23" width="1" height="50" fill="#F6F5B4" />
<rect x="18" y="23" width="1" height="1" fill="#000000" />
<rect x="19" y="23" width="90" height="1" fill="#F6F5B4" />
<rect x="109" y="23" width="1" height="1" fill="#000000" />
<rect x="110" y="23" width="1" height="50" fill="#F6F5B4" />
<rect x="18" y="24" width="1" height="48" fill="#F6F5B4" />
<rect x="19" y="24" width="1" height="1" fill="#000000" />
<rect x="20" y="24" width="88" height="1" fill="#F6F5B4" />
<rect x="108" y="24" width="1" height="1" fill="#000000" />
<rect x="109" y="24" width="1" height="48" fill="#F6F5B4" />
<rect x="19" y="25" width="1" height="46" fill="#F6F5B4" />
<rect x="20" y="25" width="1" height="2" fill="#000000" />
<rect x="21" y="25" width="86" height="2" fill="#F6F5B4" />
<rect x="107" y="25" width="1" height="2" fill="#000000" />
<rect x="108" y="25" width="1" height="46" fill="#F6F5B4" />
<rect x="20" y="27" width="1" height="42" fill="#F6F5B4" />
<rect x="21" y="27" width="1" height="1" fill="#000000" />
<rect x="22" y="27" width="84" height="1" fill="#F6F5B4" />
<rect x="106" y="27" width="1" height="1" fill="#000000" />
<rect x="107" y="27" width="1" height="42" fill="#F6F5B4" />
<rect x="21" y="28" width="1" height="40" fill="#F6F5B4" />
<rect x="22" y="28" width="1" height="1" fill="#000000" />
<rect x="23" y="28" width="82" height="1" fill="#F6F5B4" />
<rect x="105" y="28" width="1" height="1" fill="#000000" />
<rect x="106" y="28" width="1" height="40" fill="#F6F5B4" />
<rect x="22" y="29" width="1" height="38" fill="#F6F5B4" />
<rect x="23" y="29" width="1" height="1" fill="#000000" />
<rect x="24" y="29" width="80" height="1" fill="#F6F5B4" />
<rect x="104" y="29" width="1" height="1" fill="#000000" />
<rect x="105" y="29" width="1" height="38" fill="#F6F5B4" />
<rect x="23" y="30" width="1" height="36" fill="#F6F5B4" />
<rect x="24" y="30" width="1" height="2" fill="#000000" />
<rect x="25" y="30" width="78" height="2" fill="#F6F5B4" />
<rect x="103" y="30" width="1" height="2" fill="#000000" />
<rect x="104" y="30" width="1" height="36" fill="#F6F5B4" />
<rect x="24" y="32" width="1" height="32" fill="#F6F5B4" />
<rect x="25" y="32" width="1" height="1" fill="#000000" />
<rect x="26" y="32" width="76" height="1" fill="#F6F5B4" />
<rect x="102" y="32" width="1" height="1" fill="#000000" />
<rect x="103" y="32" width="1" height="32" fill="#F6F5B4" />
<rect x="25" y="33" width="1" height="30" fill="#F6F5B4" />
<rect x="26" y="33" width="1" height="1" fill="#000000" />
<rect x="27" y="33" width="74" height="1" fill="#F6F5B4" />
<rect x="101" y="33" width="1" height="1" fill="#000000" />
<rect x="102" y="33" width="1" height="30" fill="#F6F5B4" />
<rect x="26" y="34" width="1" height="28" fill="#F6F5B4" />
<rect x="27" y="34" width="1" height="1" fill="#000000" />
<rect x="28" y="34" width="72" height="1" fill="#F6F5B4" />
<rect x="100" y="34" width="1" height="1" fill="#000000" />
<rect x="101" y="34" width="1" height="28" fill="#F6F5B4" />
<rect x="27" y="35" width="1" height="26" fill="#F6F5B4" />
<rect x="28" y="35" width="1" height="2" fill="#000000" />
<rect x="29" y="35" width="70" height="2" fill="#F6F5B4" />
<rect x="99" y="35" width="1" height="2" fill="#000000" />
<rect x="100" y="35" width="1" height="26" fill="#F6F5B4" />
<rect x="28" y="37" width="1" height="22" fill="#F6F5B4" />
<rect x="29" y="37" width="1" height="1" fill="#000000" />
<rect x="30" y="37" width="68" height="1" fill="#F6F5B4" />
<rect x="98" y="37" width="1" height="1" fill="#000000" />
<rect x="99" y="37" width="1" height="22" fill="#F6F5B4" />
<rect x="29" y="38" width="1" height="20" fill="#F6F5B4" />
<rect x="30" y="38" width="1" height="1" fill="#000000" />
<rect x="31" y="38" width="66" height="1" fill="#F6F5B4" />
<rect x="97" y="38" width="1" height="1" fill="#000000" />
<rect x="98" y="38" width="1" height="20" fill="#F6F5B4" />
<rect x="30" y="39" width="1" height="18" fill="#F6F5B4" />
<rect x="31" y="39" width="1" height="1" fill="#000000" />
<rect x="32" y="39" width="64" height="1" fill="#F6F5B4" />
<rect x="96" y="39" width="1" height="1" fill="#000000" />
<rect x="97" y="39" width="1" height="18" fill="#F6F5B4" />
<rect x="31" y="40" width="1" height="16" fill="#F6F5B4" />
<rect x="32" y="40" width="1" height="1" fill="#000000" />
<rect x="33" y="40" width="62" height="1" fill="#F6F5B4" />
<rect x="95" y="40" width="1" height="1" fill="#000000" />
<rect x="96" y="40" width="1" height="16" fill="#F6F5B4" />
<rect x="32" y="41" width="1" height="14" fill="#F6F5B4" />
<rect x="33" y="41" width="1" height="1" fill="#000000" />
<rect x="34" y="41" width="60" height="1" fill="#F6F5B4" />
<rect x="94" y="41" width="1" height="1" fill="#000000" />
<rect x="95" y="41" width="1" height="14" fill="#F6F5B4" />
<rect x="33" y="42" width="1" height="12" fill="#F6F5B4" />
<rect x="34" y="42" width="1" height="2" fill="#000000" />
<rect x="35" y="42" width="58" height="1" fill="#F6F5B4" />
<rect x="93" y="42" width="1" height="2" fill="#000000" />
<rect x="94" y="42" width="1" height="12" fill="#F6F5B4" />
<rect x="35" y="43" width="26" height="1" fill="#F6F5B4" />
<rect x="61" y="43" width="8" height="3" fill="#AB0000" />
<rect x="69" y="43" width="24" height="1" fill="#F6F5B4" />
<rect x="34" y="44" width="1" height="8" fill="#F6F5B4" />
<rect x="35" y="44" width="1" height="1" fill="#000000" />
<rect x="36" y="44" width="22" height="1" fill="#F6F5B4" />
<rect x="58" y="44" width="3" height="3" fill="#AB0000" />
<rect x="69" y="44" width="3" height="3" fill="#AB0000" />
<rect x="72" y="44" width="20" height="1" fill="#F6F5B4" />
<rect x="92" y="44" width="1" height="1" fill="#000000" />
<rect x="93" y="44" width="1" height="8" fill="#F6F5B4" />
<rect x="35" y="45" width="1" height="6" fill="#F6F5B4" />
<rect x="36" y="45" width="1" height="1" fill="#000000" />
<rect x="37" y="45" width="19" height="1" fill="#F6F5B4" />
<rect x="56" y="45" width="2" height="3" fill="#AB0000" />
<rect x="72" y="45" width="2" height="3" fill="#AB0000" />
<rect x="74" y="45" width="17" height="1" fill="#F6F5B4" />
<rect x="91" y="45" width="1" height="1" fill="#000000" />
<rect x="92" y="45" width="1" height="6" fill="#F6F5B4" />
<rect x="36" y="46" width="1" height="4" fill="#F6F5B4" />
<rect x="37" y="46" width="1" height="1" fill="#000000" />
<rect x="38" y="46" width="17" height="1" fill="#F6F5B4" />
<rect x="55" y="46" width="1" height="4" fill="#AB0000" />
<rect x="61" y="46" width="1" height="1" fill="#AB0000" />
<rect x="62" y="46" width="6" height="3" fill="#A30000" />
<rect x="68" y="46" width="1" height="1" fill="#AB0000" />
<rect x="74" y="46" width="1" height="4" fill="#AB0000" />
<rect x="75" y="46" width="15" height="1" fill="#F6F5B4" />
<rect x="90" y="46" width="1" height="1" fill="#000000" />
<rect x="91" y="46" width="1" height="4" fill="#F6F5B4" />
<rect x="37" y="47" width="1" height="2" fill="#F6F5B4" />
<rect x="38" y="47" width="1" height="2" fill="#000000" />
<rect x="39" y="47" width="15" height="1" fill="#F6F5B4" />
<rect x="54" y="47" width="1" height="4" fill="#AB0000" />
<rect x="58" y="47" width="1" height="1" fill="#AB0000" />
<rect x="59" y="47" width="3" height="2" fill="#A30000" />
<rect x="68" y="47" width="3" height="2" fill="#A30000" />
<rect x="71" y="47" width="1" height="1" fill="#AB0000" />
<rect x="75" y="47" width="1" height="4" fill="#AB0000" />
<rect x="76" y="47" width="13" height="1" fill="#F6F5B4" />
<rect x="89" y="47" width="1" height="2" fill="#000000" />
<rect x="90" y="47" width="1" height="2" fill="#F6F5B4" />
<rect x="39" y="48" width="1" height="1" fill="#000000" />
<rect x="40" y="48" width="13" height="1" fill="#F6F5B4" />
<rect x="53" y="48" width="1" height="4" fill="#AB0000" />
<rect x="56" y="48" width="1" height="1" fill="#AB0000" />
<rect x="57" y="48" width="2" height="22" fill="#A30000" />
<rect x="71" y="48" width="2" height="1" fill="#A30000" />
<rect x="73" y="48" width="1" height="1" fill="#AB0000" />
<rect x="76" y="48" width="1" height="4" fill="#AB0000" />
<rect x="77" y="48" width="11" height="1" fill="#F6F5B4" />
<rect x="88" y="48" width="1" height="1" fill="#000000" />
<rect x="37" y="49" width="1" height="1" fill="#000000" />
<rect x="38" y="49" width="2" height="45" fill="#F6F5B4" />
<rect x="40" y="49" width="1" height="1" fill="#000000" />
<rect x="41" y="49" width="11" height="1" fill="#F6F5B4" />
<rect x="52" y="49" width="1" height="4" fill="#AB0000" />
<rect x="56" y="49" width="1" height="20" fill="#A30000" />
<rect x="59" y="49" width="1" height="22" fill="#A30000" />
<rect x="60" y="49" width="12" height="2" fill="#7B0000" />
<rect x="72" y="49" width="2" height="1" fill="#A30000" />
<rect x="77" y="49" width="1" height="4" fill="#AB0000" />
<rect x="78" y="49" width="9" height="1" fill="#F6F5B4" />
<rect x="87" y="49" width="1" height="1" fill="#000000" />
<rect x="88" y="49" width="2" height="45" fill="#F6F5B4" />
<rect x="90" y="49" width="1" height="1" fill="#000000" />
<rect x="36" y="50" width="1" height="1" fill="#000000" />
<rect x="37" y="50" width="1" height="44" fill="#F6F5B4" />
<rect x="40" y="50" width="1" height="44" fill="#F6F5B4" />
<rect x="41" y="50" width="1" height="1" fill="#000000" />
<rect x="42" y="50" width="9" height="1" fill="#F6F5B4" />
<rect x="51" y="50" width="1" height="5" fill="#AB0000" />
<rect x="55" y="50" width="1" height="19" fill="#A30000" />
<rect x="72" y="50" width="2" height="4" fill="#7B0000" />
<rect x="74" y="50" width="1" height="1" fill="#A30000" />
<rect x="78" y="50" width="1" height="5" fill="#AB0000" />
<rect x="79" y="50" width="7" height="1" fill="#F6F5B4" />
<rect x="86" y="50" width="1" height="1" fill="#000000" />
<rect x="87" y="50" width="1" height="44" fill="#F6F5B4" />
<rect x="90" y="50" width="1" height="44" fill="#F6F5B4" />
<rect x="91" y="50" width="1" height="1" fill="#000000" />
<rect x="35" y="51" width="1" height="1" fill="#000000" />
<rect x="36" y="51" width="1" height="43" fill="#F6F5B4" />
<rect x="41" y="51" width="1" height="43" fill="#F6F5B4" />
<rect x="42" y="51" width="1" height="1" fill="#000000" />
<rect x="43" y="51" width="7" height="1" fill="#F6F5B4" />
<rect x="50" y="51" width="1" height="7" fill="#AB0000" />
<rect x="54" y="51" width="1" height="20" fill="#A30000" />
<rect x="60" y="51" width="1" height="20" fill="#A30000" />
<rect x="61" y="51" width="5" height="1" fill="#7B0000" />
<rect x="66" y="51" width="5" height="8" fill="#A30000" />
<rect x="71" y="51" width="1" height="1" fill="#7B0000" />
<rect x="74" y="51" width="1" height="8" fill="#7B0000" />
<rect x="75" y="51" width="1" height="20" fill="#A30000" />
<rect x="79" y="51" width="1" height="7" fill="#AB0000" />
<rect x="80" y="51" width="5" height="1" fill="#F6F5B4" />
<rect x="85" y="51" width="1" height="1" fill="#000000" />
<rect x="86" y="51" width="1" height="43" fill="#F6F5B4" />
<rect x="91" y="51" width="1" height="43" fill="#F6F5B4" />
<rect x="92" y="51" width="1" height="1" fill="#000000" />
<rect x="34" y="52" width="1" height="2" fill="#000000" />
<rect x="35" y="52" width="1" height="42" fill="#F6F5B4" />
<rect x="42" y="52" width="1" height="42" fill="#F6F5B4" />
<rect x="43" y="52" width="1" height="1" fill="#000000" />
<rect x="44" y="52" width="5" height="1" fill="#F6F5B4" />
<rect x="49" y="52" width="1" height="18" fill="#AB0000" />
<rect x="53" y="52" width="1" height="18" fill="#A30000" />
<rect x="61" y="52" width="1" height="17" fill="#A30000" />
<rect x="62" y="52" width="3" height="1" fill="#7B0000" />
<rect x="65" y="52" width="1" height="7" fill="#A30000" />
<rect x="71" y="52" width="1" height="6" fill="#A30000" />
<rect x="76" y="52" width="1" height="18" fill="#A30000" />
<rect x="80" y="52" width="1" height="18" fill="#AB0000" />
<rect x="81" y="52" width="3" height="1" fill="#F6F5B4" />
<rect x="84" y="52" width="1" height="1" fill="#000000" />
<rect x="85" y="52" width="1" height="42" fill="#F6F5B4" />
<rect x="92" y="52" width="1" height="42" fill="#F6F5B4" />
<rect x="93" y="52" width="1" height="2" fill="#000000" />
<rect x="43" y="53" width="1" height="41" fill="#F6F5B4" />
<rect x="44" y="53" width="1" height="1" fill="#000000" />
<rect x="45" y="53" width="4" height="1" fill="#F6F5B4" />
<rect x="52" y="53" width="1" height="16" fill="#A30000" />
<rect x="62" y="53" width="2" height="19" fill="#7B0000" />
<rect x="64" y="53" width="1" height="6" fill="#A30000" />
<rect x="77" y="53" width="1" height="16" fill="#A30000" />
<rect x="81" y="53" width="2" height="1" fill="#F6F5B4" />
<rect x="83" y="53" width="1" height="1" fill="#000000" />
<rect x="84" y="53" width="1" height="41" fill="#F6F5B4" />
<rect x="33" y="54" width="1" height="1" fill="#000000" />
<rect x="34" y="54" width="1" height="40" fill="#F6F5B4" />
<rect x="44" y="54" width="1" height="40" fill="#F6F5B4" />
<rect x="45" y="54" width="1" height="1" fill="#000000" />
<rect x="46" y="54" width="2" height="1" fill="#F6F5B4" />
<rect x="48" y="54" width="1" height="14" fill="#AB0000" />
<rect x="72" y="54" width="1" height="3" fill="#A30000" />
<rect x="73" y="54" width="1" height="6" fill="#7B0000" />
<rect x="81" y="54" width="1" height="14" fill="#AB0000" />
<rect x="82" y="54" width="1" height="1" fill="#000000" />
<rect x="83" y="54" width="1" height="40" fill="#F6F5B4" />
<rect x="93" y="54" width="1" height="40" fill="#F6F5B4" />
<rect x="94" y="54" width="1" height="1" fill="#000000" />
<rect x="32" y="55" width="1" height="1" fill="#000000" />
<rect x="33" y="55" width="1" height="39" fill="#F6F5B4" />
<rect x="45" y="55" width="1" height="39" fill="#F6F5B4" />
<rect x="46" y="55" width="1" height="1" fill="#000000" />
<rect x="47" y="55" width="1" height="1" fill="#F6F5B4" />
<rect x="51" y="55" width="1" height="12" fill="#A30000" />
<rect x="78" y="55" width="1" height="12" fill="#A30000" />
<rect x="82" y="55" width="1" height="2" fill="#F6F5B4" />
<rect x="94" y="55" width="1" height="39" fill="#F6F5B4" />
<rect x="95" y="55" width="1" height="1" fill="#000000" />
<rect x="31" y="56" width="1" height="1" fill="#000000" />
<rect x="32" y="56" width="1" height="38" fill="#F6F5B4" />
<rect x="46" y="56" width="1" height="38" fill="#F6F5B4" />
<rect x="47" y="56" width="1" height="1" fill="#000000" />
<rect x="95" y="56" width="1" height="38" fill="#F6F5B4" />
<rect x="96" y="56" width="1" height="1" fill="#000000" />
<rect x="30" y="57" width="1" height="1" fill="#000000" />
<rect x="31" y="57" width="1" height="37" fill="#F6F5B4" />
<rect x="47" y="57" width="1" height="8" fill="#AB0000" />
<rect x="72" y="57" width="1" height="3" fill="#7B0000" />
<rect x="82" y="57" width="1" height="8" fill="#AB0000" />
<rect x="96" y="57" width="1" height="37" fill="#F6F5B4" />
<rect x="97" y="57" width="1" height="1" fill="#000000" />
<rect x="29" y="58" width="1" height="1" fill="#000000" />
<rect x="30" y="58" width="1" height="36" fill="#F6F5B4" />
<rect x="50" y="58" width="1" height="6" fill="#A30000" />
<rect x="71" y="58" width="1" height="3" fill="#7B0000" />
<rect x="79" y="58" width="1" height="6" fill="#A30000" />
<rect x="97" y="58" width="1" height="36" fill="#F6F5B4" />
<rect x="98" y="58" width="1" height="1" fill="#000000" />
<rect x="28" y="59" width="1" height="2" fill="#000000" />
<rect x="29" y="59" width="1" height="35" fill="#F6F5B4" />
<rect x="64" y="59" width="2" height="3" fill="#7B0000" />
<rect x="66" y="59" width="2" height="1" fill="#A30000" />
<rect x="68" y="59" width="3" height="3" fill="#7B0000" />
<rect x="74" y="59" width="1" height="13" fill="#A30000" />
<rect x="98" y="59" width="1" height="35" fill="#F6F5B4" />
<rect x="99" y="59" width="1" height="2" fill="#000000" />
<rect x="66" y="60" width="2" height="2" fill="#7B0000" />
<rect x="72" y="60" width="2" height="13" fill="#A30000" />
<rect x="27" y="61" width="1" height="1" fill="#000000" />
<rect x="28" y="61" width="1" height="33" fill="#F6F5B4" />
<rect x="71" y="61" width="1" height="13" fill="#A30000" />
<rect x="99" y="61" width="1" height="33" fill="#F6F5B4" />
<rect x="100" y="61" width="1" height="1" fill="#000000" />
<rect x="26" y="62" width="1" height="1" fill="#000000" />
<rect x="27" y="62" width="1" height="32" fill="#F6F5B4" />
<rect x="64" y="62" width="1" height="1" fill="#7B0000" />
<rect x="65" y="62" width="6" height="13" fill="#A30000" />
<rect x="100" y="62" width="1" height="32" fill="#F6F5B4" />
<rect x="101" y="62" width="1" height="1" fill="#000000" />
<rect x="25" y="63" width="1" height="1" fill="#000000" />
<rect x="26" y="63" width="1" height="31" fill="#F6F5B4" />
<rect x="64" y="63" width="1" height="13" fill="#A30000" />
<rect x="101" y="63" width="1" height="31" fill="#F6F5B4" />
<rect x="102" y="63" width="1" height="1" fill="#000000" />
<rect x="24" y="64" width="1" height="2" fill="#000000" />
<rect x="25" y="64" width="1" height="30" fill="#F6F5B4" />
<rect x="50" y="64" width="1" height="7" fill="#AB0000" />
<rect x="79" y="64" width="1" height="7" fill="#AB0000" />
<rect x="102" y="64" width="1" height="30" fill="#F6F5B4" />
<rect x="103" y="64" width="1" height="2" fill="#000000" />
<rect x="47" y="65" width="1" height="29" fill="#F6F5B4" />
<rect x="82" y="65" width="1" height="29" fill="#F6F5B4" />
<rect x="23" y="66" width="1" height="1" fill="#000000" />
<rect x="24" y="66" width="1" height="28" fill="#F6F5B4" />
<rect x="103" y="66" width="1" height="28" fill="#F6F5B4" />
<rect x="104" y="66" width="1" height="1" fill="#000000" />
<rect x="22" y="67" width="1" height="1" fill="#000000" />
<rect x="23" y="67" width="1" height="27" fill="#F6F5B4" />
<rect x="51" y="67" width="1" height="5" fill="#AB0000" />
<rect x="78" y="67" width="1" height="5" fill="#AB0000" />
<rect x="104" y="67" width="1" height="27" fill="#F6F5B4" />
<rect x="105" y="67" width="1" height="1" fill="#000000" />
<rect x="21" y="68" width="1" height="1" fill="#000000" />
<rect x="22" y="68" width="1" height="26" fill="#F6F5B4" />
<rect x="48" y="68" width="1" height="26" fill="#F6F5B4" />
<rect x="81" y="68" width="1" height="26" fill="#F6F5B4" />
<rect x="105" y="68" width="1" height="26" fill="#F6F5B4" />
<rect x="106" y="68" width="1" height="1" fill="#000000" />
<rect x="20" y="69" width="1" height="2" fill="#000000" />
<rect x="21" y="69" width="1" height="25" fill="#F6F5B4" />
<rect x="52" y="69" width="1" height="4" fill="#AB0000" />
<rect x="55" y="69" width="2" height="1" fill="#7B0000" />
<rect x="61" y="69" width="1" height="4" fill="#7B0000" />
<rect x="77" y="69" width="1" height="4" fill="#AB0000" />
<rect x="106" y="69" width="1" height="25" fill="#F6F5B4" />
<rect x="107" y="69" width="1" height="2" fill="#000000" />
<rect x="49" y="70" width="1" height="24" fill="#F6F5B4" />
<rect x="53" y="70" width="1" height="4" fill="#AB0000" />
<rect x="55" y="70" width="1" height="2" fill="#A30000" />
<rect x="56" y="70" width="2" height="2" fill="#7B0000" />
<rect x="58" y="70" width="1" height="1" fill="#A30000" />
<rect x="76" y="70" width="1" height="4" fill="#AB0000" />
<rect x="80" y="70" width="1" height="24" fill="#F6F5B4" />
<rect x="19" y="71" width="1" height="1" fill="#000000" />
<rect x="20" y="71" width="1" height="23" fill="#F6F5B4" />
<rect x="50" y="71" width="1" height="23" fill="#F6F5B4" />
<rect x="54" y="71" width="1" height="4" fill="#AB0000" />
<rect x="58" y="71" width="3" height="2" fill="#7B0000" />
<rect x="75" y="71" width="1" height="4" fill="#AB0000" />
<rect x="79" y="71" width="1" height="23" fill="#F6F5B4" />
<rect x="107" y="71" width="1" height="23" fill="#F6F5B4" />
<rect x="108" y="71" width="1" height="1" fill="#000000" />
<rect x="18" y="72" width="1" height="1" fill="#000000" />
<rect x="19" y="72" width="1" height="22" fill="#F6F5B4" />
<rect x="51" y="72" width="1" height="22" fill="#F6F5B4" />
<rect x="55" y="72" width="1" height="4" fill="#AB0000" />
<rect x="56" y="72" width="1" height="1" fill="#A30000" />
<rect x="57" y="72" width="1" height="1" fill="#7B0000" />
<rect x="62" y="72" width="1" height="1" fill="#7B0000" />
<rect x="63" y="72" width="1" height="4" fill="#A30000" />
<rect x="74" y="72" width="1" height="4" fill="#AB0000" />
<rect x="78" y="72" width="1" height="22" fill="#F6F5B4" />
<rect x="108" y="72" width="1" height="22" fill="#F6F5B4" />
<rect x="109" y="72" width="1" height="1" fill="#000000" />
<rect x="17" y="73" width="1" height="2" fill="#000000" />
<rect x="18" y="73" width="1" height="21" fill="#F6F5B4" />
<rect x="52" y="73" width="1" height="21" fill="#F6F5B4" />
<rect x="56" y="73" width="1" height="4" fill="#AB0000" />
<rect x="57" y="73" width="6" height="1" fill="#A30000" />
<rect x="72" y="73" width="1" height="1" fill="#A30000" />
<rect x="73" y="73" width="1" height="4" fill="#AB0000" />
<rect x="77" y="73" width="1" height="21" fill="#F6F5B4" />
<rect x="109" y="73" width="1" height="21" fill="#F6F5B4" />
<rect x="110" y="73" width="1" height="2" fill="#000000" />
<rect x="53" y="74" width="1" height="20" fill="#F6F5B4" />
<rect x="57" y="74" width="2" height="3" fill="#AB0000" />
<rect x="59" y="74" width="4" height="1" fill="#A30000" />
<rect x="71" y="74" width="2" height="3" fill="#AB0000" />
<rect x="76" y="74" width="1" height="20" fill="#F6F5B4" />
<rect x="16" y="75" width="1" height="1" fill="#000000" />
<rect x="17" y="75" width="1" height="19" fill="#F6F5B4" />
<rect x="54" y="75" width="1" height="19" fill="#F6F5B4" />
<rect x="59" y="75" width="3" height="3" fill="#AB0000" />
<rect x="62" y="75" width="1" height="1" fill="#A30000" />
<rect x="65" y="75" width="3" height="1" fill="#A30000" />
<rect x="68" y="75" width="3" height="3" fill="#AB0000" />
<rect x="75" y="75" width="1" height="19" fill="#F6F5B4" />
<rect x="110" y="75" width="1" height="19" fill="#F6F5B4" />
<rect x="111" y="75" width="1" height="1" fill="#000000" />
<rect x="15" y="76" width="1" height="1" fill="#000000" />
<rect x="16" y="76" width="1" height="18" fill="#F6F5B4" />
<rect x="55" y="76" width="1" height="18" fill="#F6F5B4" />
<rect x="62" y="76" width="6" height="3" fill="#AB0000" />
<rect x="74" y="76" width="1" height="18" fill="#F6F5B4" />
<rect x="111" y="76" width="1" height="18" fill="#F6F5B4" />
<rect x="112" y="76" width="1" height="1" fill="#000000" />
<rect x="14" y="77" width="1" height="2" fill="#000000" />
<rect x="15" y="77" width="1" height="17" fill="#F6F5B4" />
<rect x="56" y="77" width="2" height="17" fill="#F6F5B4" />
<rect x="58" y="77" width="1" height="1" fill="#AB0000" />
<rect x="71" y="77" width="1" height="1" fill="#AB0000" />
<rect x="72" y="77" width="2" height="17" fill="#F6F5B4" />
<rect x="112" y="77" width="1" height="17" fill="#F6F5B4" />
<rect x="113" y="77" width="1" height="2" fill="#000000" />
<rect x="58" y="78" width="3" height="16" fill="#F6F5B4" />
<rect x="61" y="78" width="1" height="1" fill="#AB0000" />
<rect x="68" y="78" width="1" height="1" fill="#AB0000" />
<rect x="69" y="78" width="3" height="16" fill="#F6F5B4" />
<rect x="13" y="79" width="1" height="1" fill="#000000" />
<rect x="14" y="79" width="1" height="15" fill="#F6F5B4" />
<rect x="61" y="79" width="8" height="15" fill="#F6F5B4" />
<rect x="113" y="79" width="1" height="15" fill="#F6F5B4" />
<rect x="114" y="79" width="1" height="1" fill="#000000" />
<rect x="12" y="80" width="1" height="1" fill="#000000" />
<rect x="13" y="80" width="1" height="14" fill="#F6F5B4" />
<rect x="114" y="80" width="1" height="14" fill="#F6F5B4" />
<rect x="115" y="80" width="1" height="1" fill="#000000" />
<rect x="11" y="81" width="1" height="1" fill="#000000" />
<rect x="12" y="81" width="1" height="13" fill="#F6F5B4" />
<rect x="115" y="81" width="1" height="13" fill="#F6F5B4" />
<rect x="116" y="81" width="1" height="1" fill="#000000" />
<rect x="10" y="82" width="1" height="2" fill="#000000" />
<rect x="11" y="82" width="1" height="12" fill="#F6F5B4" />
<rect x="116" y="82" width="1" height="12" fill="#F6F5B4" />
<rect x="117" y="82" width="1" height="2" fill="#000000" />
<rect x="9" y="84" width="1" height="1" fill="#000000" />
<rect x="10" y="84" width="1" height="10" fill="#F6F5B4" />
<rect x="117" y="84" width="1" height="10" fill="#F6F5B4" />
<rect x="118" y="84" width="1" height="1" fill="#000000" />
<rect x="8" y="85" width="1" height="1" fill="#000000" />
<rect x="9" y="85" width="1" height="9" fill="#F6F5B4" />
<rect x="118" y="85" width="1" height="9" fill="#F6F5B4" />
<rect x="119" y="85" width="1" height="1" fill="#000000" />
<rect x="7" y="86" width="1" height="1" fill="#000000" />
<rect x="8" y="86" width="1" height="8" fill="#F6F5B4" />
<rect x="119" y="86" width="1" height="8" fill="#F6F5B4" />
<rect x="120" y="86" width="1" height="2" fill="#000000" />
<rect x="6" y="87" width="1" height="2" fill="#000000" />
<rect x="7" y="87" width="1" height="7" fill="#F6F5B4" />
<rect x="120" y="88" width="1" height="6" fill="#F6F5B4" />
<rect x="121" y="88" width="1" height="1" fill="#000000" />
<rect x="5" y="89" width="1" height="1" fill="#000000" />
<rect x="6" y="89" width="1" height="5" fill="#F6F5B4" />
<rect x="121" y="89" width="1" height="5" fill="#F6F5B4" />
<rect x="122" y="89" width="1" height="1" fill="#000000" />
<rect x="4" y="90" width="1" height="1" fill="#000000" />
<rect x="5" y="90" width="1" height="4" fill="#F6F5B4" />
<rect x="122" y="90" width="1" height="4" fill="#F6F5B4" />
<rect x="123" y="90" width="1" height="1" fill="#000000" />
<rect x="3" y="91" width="1" height="2" fill="#000000" />
<rect x="4" y="91" width="1" height="3" fill="#F6F5B4" />
<rect x="123" y="91" width="1" height="3" fill="#F6F5B4" />
<rect x="124" y="91" width="1" height="2" fill="#000000" />
<rect x="2" y="93" width="1" height="1" fill="#000000" />
<rect x="3" y="93" width="1" height="1" fill="#F6F5B4" />
<rect x="124" y="93" width="1" height="1" fill="#F6F5B4" />
<rect x="125" y="93" width="1" height="1" fill="#000000" />
<rect x="3" y="94" width="122" height="1" fill="#000000" />
</svg>